<?xml version="1.0" encoding="UTF-8"?>
<svg width="142px" height="142px" viewBox="0 0 142 142" version="1.1" xmlns="http://www.w3.org/2000/svg" xmlns:xlink="http://www.w3.org/1999/xlink">
    <!-- Generator: Sketch 51.3 (57544) - http://www.bohemiancoding.com/sketch -->
    <title>checked (2)</title>
    <desc>Created with Sketch.</desc>
    <defs></defs>
    <g id="Page-1" stroke="none" stroke-width="1" fill="none" fill-rule="evenodd">
        <g id="change_password_4" transform="translate(-649.000000, -323.000000)" fill-rule="nonzero">
            <g id="Group" transform="translate(404.000000, 323.000000)">
                <g id="checked-(2)" transform="translate(245.000000, 0.000000)">
                    <circle id="Oval" fill="#9DE158" cx="71" cy="71" r="71"></circle>
                    <path d="M130.790532,32 L68,97.0108683 L68.1109806,104 L70.9953504,104 L139,49.1956527 C137.002912,43.0941058 134.229523,37.2142438 130.790532,32 Z" id="Shape" fill="#80C739"></path>
                    <path d="M140.755349,28.704276 L128.254067,16.2509507 C126.594533,14.5830164 123.828829,14.5830164 122.058903,16.2509507 L68.6245933,71.7346071 L45.5029091,48.8295905 C43.8433748,47.1616562 41.0776714,47.1616562 39.3077449,48.8295905 L28.2446508,59.8374481 C26.5851164,61.5053823 26.5851164,64.2850844 28.2446508,65.9530186 L65.1951324,102.756546 C66.1909092,103.757363 67.5184243,104.09078 68.8459395,103.979547 C70.1734546,104.09078 71.5009697,103.757081 72.4967465,102.756546 L140.755349,34.9307975 C142.414884,33.15163 142.414884,30.3719279 140.755349,28.704276 Z" id="Shape" fill="#F2F1EF"></path>
                    <path d="M72.4297939,102.757477 L140.75415,34.9978808 C142.415283,33.3315733 142.415283,30.5545823 140.75415,28.8882749 L138.760959,27 L68.6646903,96.092529 L29.9069827,58.2139317 L28.2458497,59.8802391 C26.5847168,61.5465466 26.5847168,64.3235376 28.2458497,65.989845 L65.2319259,102.757759 C66.2286619,103.7576 67.5574558,104.090692 68.8862497,103.979567 C70.104264,104.09041 71.4330579,103.757318 72.4297939,102.757477 Z" id="Shape" fill="#E6E5E3"></path>
                </g>
            </g>
        </g>
    </g>
</svg>