<svg id="Layer_1" data-name="Layer 1" xmlns="http://www.w3.org/2000/svg" xmlns:xlink="http://www.w3.org/1999/xlink" viewBox="0 0 34 27"><defs><style>.cls-1{fill:none;}.cls-2{clip-path:url(#clip-path);}.cls-3{fill:#fff;}</style><clipPath id="clip-path"><rect class="cls-1" width="34" height="27"/></clipPath></defs><title>home</title><g class="cls-2"><path class="cls-3" d="M16.88,5.43l-12,9.93a.18.18,0,0,1,0,.06.18.18,0,0,0,0,.06V25.54a1.26,1.26,0,0,0,.4.94,1.25,1.25,0,0,0,.94.4h8v-8h5.36v8.05h8a1.37,1.37,0,0,0,1.34-1.34V15.48a.33.33,0,0,0,0-.12Zm0,0" fill="#ffffff"/><path class="cls-3" d="M33.52,13.09,28.94,9.28V.73a.65.65,0,0,0-.19-.48.69.69,0,0,0-.48-.19h-4a.66.66,0,0,0-.48.19.65.65,0,0,0-.19.48V4.82L18.47.55A2.42,2.42,0,0,0,16.88,0a2.39,2.39,0,0,0-1.59.55L.23,13.09a.66.66,0,0,0-.23.45.73.73,0,0,0,.15.5l1.3,1.55a.75.75,0,0,0,.44.23.83.83,0,0,0,.5-.15L16.88,3.58,31.37,15.67a.63.63,0,0,0,.44.15h.06a.75.75,0,0,0,.44-.23L33.61,14a.67.67,0,0,0,.14-.5.62.62,0,0,0-.23-.45Zm0,0" fill="#ffffff"/></g></svg>