<svg id="Layer_1" data-name="Layer 1" xmlns="http://www.w3.org/2000/svg" viewBox="0 0 31 41"><defs><style>.cls-1{fill:none;}</style></defs><title>lock</title><path d="M30.14,15.38H27.56V12A12.06,12.06,0,0,0,3.44,12v3.42H.86a.86.86,0,0,0-.86.85V37.58A3.43,3.43,0,0,0,3.44,41H27.56A3.43,3.43,0,0,0,31,37.58V16.23A.86.86,0,0,0,30.14,15.38ZM5.17,12a10.33,10.33,0,0,1,20.66,0v3.42H24.11V12A8.61,8.61,0,0,0,6.89,12v3.42H5.17Zm17.22,3.42H8.61V12a6.89,6.89,0,0,1,13.78,0Zm6.89,22.2a1.72,1.72,0,0,1-1.72,1.71H3.44a1.72,1.72,0,0,1-1.72-1.71V17.08H29.28Z"/><path d="M20.36,21.29a.4.4,0,0,0-.42-.38.4.4,0,0,0-.27.12h0l-1.13,1.21A6.63,6.63,0,0,0,9,29.64a.4.4,0,0,0,.39.3h.1a.39.39,0,0,0,.29-.48,5.76,5.76,0,0,1,1.76-5.66A5.88,5.88,0,0,1,18,22.86l-.85.92a.38.38,0,0,0-.12.29.41.41,0,0,0,.41.39h0l2.67-.1a.41.41,0,0,0,.39-.4v-.05Z"/><path d="M10.59,35.05a.4.4,0,0,0,.42.39.45.45,0,0,0,.28-.12h0l1.13-1.21a6.68,6.68,0,0,0,7.55-1,6.56,6.56,0,0,0,2-6.44.4.4,0,0,0-.39-.31h-.1a.42.42,0,0,0-.3.49,5.75,5.75,0,0,1-1.75,5.66,5.87,5.87,0,0,1-6.44.92l.86-.91a.39.39,0,0,0,.11-.29.41.41,0,0,0-.4-.39h0l-2.67.1a.4.4,0,0,0-.38.4v0Z"/></svg>