<?xml version="1.0" encoding="UTF-8"?>
<svg width="266px" height="167px" viewBox="0 0 266 167" version="1.1" xmlns="http://www.w3.org/2000/svg" xmlns:xlink="http://www.w3.org/1999/xlink">
    <!-- Generator: Sketch 51.3 (57544) - http://www.bohemiancoding.com/sketch -->
    <title>Group 2</title>
    <desc>Created with Sketch.</desc>
    <defs></defs>
    <g id="Page-1" stroke="none" stroke-width="1" fill="none" fill-rule="evenodd">
        <g id="Home" transform="translate(-587.000000, -322.000000)" fill="#5BC2E7">
            <g id="Group-2" transform="translate(587.000000, 322.000000)">
                <g id="Group">
                    <polygon id="Fill-1" points="147.474448 0 55.7124257 61.9517879 0 61.9517879 0 75.4193548 61.1743502 75.4193548 148.566634 14.0061716 266 14.0061716 266 0"></polygon>
                    <polygon id="Fill-2" points="175.876754 48.483871 89.5766562 109.747369 0 109.747369 0 122.107527 93.4003015 122.107527 141.46643 87.1767094 199.909818 87.1767094 199.909818 73.7419677 162.221446 73.7419677 178.607716 60.8445178 266 60.8445178 266 48.483871"></polygon>
                    <polygon id="Fill-3" points="210.288071 93.3763441 122.895787 154.10255 0 154.10255 0 167 126.718936 167 174.238475 132.069183 233.774546 132.069183 233.774546 118.097149 196.08667 118.097149 212.472444 105.736502 266 105.736502 266 93.3763441"></polygon>
                </g>
            </g>
        </g>
    </g>
</svg>