<svg id="Capa_1" data-name="Capa 1" xmlns="http://www.w3.org/2000/svg" viewBox="0 0 35 35"><title>sign-out</title><path d="M3.76,0H20a3.75,3.75,0,0,1,3.75,3.75v7.5a1.25,1.25,0,1,1-2.5,0V3.75A1.25,1.25,0,0,0,20,2.5H3.76A1.25,1.25,0,0,0,2.51,3.75v27.5A1.25,1.25,0,0,0,3.76,32.5H20a1.25,1.25,0,0,0,1.25-1.25v-7.5a1.25,1.25,0,0,1,2.5,0v7.5A3.75,3.75,0,0,1,20,35H3.76A3.75,3.75,0,0,1,0,31.25V3.75A3.75,3.75,0,0,1,3.76,0Z"/><path d="M34.92,17a1.32,1.32,0,0,1,0,1,1.42,1.42,0,0,1-.28.41l-6.25,6.25A1.25,1.25,0,1,1,26.6,22.9l0,0,4.11-4.12H10a1.25,1.25,0,1,1,0-2.5H30.74l-4.11-4.12a1.24,1.24,0,0,1,1.76-1.76l6.26,6.25A1.41,1.41,0,0,1,34.92,17Z"/></svg>